# xmcd
#
# Track frame offsets:
#	150
#	13256
#	26112
#	39431
#	53001
#	65852
#	78274
#	91079
#	102758
#	117529
#	129360
#	143191
#	157497
#	169235
#	183776
#	195089
#	207448
#	220761
#	237620
#	251364
#	265288
#	279438
#	292373
#	308497
#	321290
#
# Disc length: 4425 seconds
#
# Revision: 1
# Processed by: cddbd v1.5.2PL0 Copyright (c) Steve Scherf et al.
# Submitted via: audiograbber 1.83.01
#
DISCID=73114719
DTITLE=Billie Holiday - 2009 - 101 Hits CD2
DYEAR=2009
DGENRE=Blues
TTITLE0=That old devil called love
TTITLE1=A fine romance
TTITLE2=Porgy
TTITLE3=Detour ahead
TTITLE4=Them their eyes
TTITLE5=Hello,my darling
TTITLE6=Says my heart
TTITLE7=Be fair with my baby
TTITLE8=Now or never
TTITLE9=Say it with a kiss
TTITLE10=Rocky Mountain Blues
TTITLE11=Deep song
TTITLE12=Remember
TTITLE13=They say
TTITLE14=Haviing myself a time
TTITLE15=Gimmie a pigfoot (and a bottle of beer)
TTITLE16=Swing,brother,swing
TTITLE17=Everything I have is yours
TTITLE18=Crazy he calls me
TTITLE19=Long gone blues
TTITLE20=I'm pulling through
TTITLE21=Am I blue?
TTITLE22=These foolish things
TTITLE23=A sailboat in the moonlight
TTITLE24=Ain't nobody's business if I do
EXTD=
EXTT0=
EXTT1=
EXTT2=
EXTT3=
EXTT4=
EXTT5=
EXTT6=
EXTT7=
EXTT8=
EXTT9=
EXTT10=
EXTT11=
EXTT12=
EXTT13=
EXTT14=
EXTT15=
EXTT16=
EXTT17=
EXTT18=
EXTT19=
EXTT20=
EXTT21=
EXTT22=
EXTT23=
EXTT24=
PLAYORDER=
